<?xml version="1.0" encoding="UTF-8" standalone="no"?>
<svg
   xmlns:dc="http://purl.org/dc/elements/1.1/"
   xmlns:cc="http://creativecommons.org/ns#"
   xmlns:rdf="http://www.w3.org/1999/02/22-rdf-syntax-ns#"
   xmlns:svg="http://www.w3.org/2000/svg"
   xmlns="http://www.w3.org/2000/svg"
   id="svg8"
   version="1.1"
   viewBox="0 0 105.83335 52.916669"
   height="200"
   width="400.00009">
  <defs
     id="defs2" />
  <metadata
     id="metadata5">
    <rdf:RDF>
      <cc:Work
         rdf:about="">
        <dc:format>image/svg+xml</dc:format>
        <dc:type
           rdf:resource="http://purl.org/dc/dcmitype/StillImage" />
        <dc:title></dc:title>
      </cc:Work>
    </rdf:RDF>
  </metadata>
  <g
     transform="translate(195.03578,-217.62499)"
     id="layer1">
    <g
       style="stroke-width:3.75"
       transform="matrix(0.26666667,0,0,0.26666667,-104.22067,178.99444)"
       id="g884">
      <rect
         style="opacity:1;fill:#000000;fill-opacity:1;fill-rule:nonzero;stroke:none;stroke-width:9.921875;stroke-linecap:butt;stroke-linejoin:miter;stroke-miterlimit:4;stroke-dasharray:none;stroke-dashoffset:0;stroke-opacity:1"
         id="rect855"
         width="396.875"
         height="198.4375"
         x="-340.55655"
         y="144.86458" />
      <path
         style="fill:#ffffff;stroke-width:3.75"
         d="m -323.0885,262.21295 -1.1684,-1.19052 0.77986,-0.83138 c 1.19583,-1.27482 10.68851,-10.04871 14.54357,-13.44233 1.88882,-1.66274 3.46966,-3.2205 3.51299,-3.4617 0.0433,-0.24119 -0.33361,-2.69077 -0.83765,-5.44351 -1.50708,-8.23084 -1.86565,-11.73962 -1.87687,-18.36643 -0.012,-7.10638 0.30935,-8.86757 2.09527,-11.48168 0.95205,-1.39354 5.21595,-5.45165 5.72812,-5.45165 0.0978,0 0.25631,1.45851 0.35222,3.24114 0.56927,10.58108 1.52624,20.62891 2.40761,25.27899 0.3796,2.00276 1.31191,4.02362 1.85627,4.02362 0.17247,0 0.91767,-0.48098 1.65599,-1.06884 1.03561,-0.82457 1.46903,-1.40729 1.89653,-2.54988 1.12545,-3.00805 1.3421,-13.01229 0.41439,-19.13545 -0.83615,-5.51885 -2.61955,-9.35236 -5.04948,-10.85414 -0.50378,-0.31136 -0.91491,-0.64569 -0.91363,-0.74296 0.004,-0.31443 7.61221,-4.70164 7.79643,-4.49585 0.0422,0.0471 0.21585,2.28831 0.38596,4.98045 0.3871,6.12645 1.46263,16.86924 1.98669,19.84375 0.51362,2.91529 1.09604,4.83896 1.67113,5.51959 0.45814,0.54221 0.47093,0.53709 2.41983,-0.97025 2.43557,-1.88373 2.62512,-2.3646 2.94047,-7.45976 0.45163,-7.29727 -0.41666,-14.21613 -2.27777,-18.1502 -0.87093,-1.841 -2.80729,-3.86838 -4.16289,-4.35857 -0.53493,-0.19343 -0.9726,-0.429 -0.9726,-0.52348 0,-0.36529 10.21911,-4.93682 10.4715,-4.68443 0.0869,0.0868 0.38507,3.05466 0.66268,6.59511 1.01796,12.98227 2.29474,19.70811 3.90479,20.56978 0.8399,0.4495 1.27689,0.34858 2.27134,-0.52457 1.46698,-1.28802 2.23106,-3.22758 2.5693,-6.52201 0.30929,-3.01244 0.16276,-8.60598 -0.29774,-11.36633 -0.7281,-4.3644 -2.47567,-7.70836 -4.77561,-9.13808 -0.73095,-0.45438 -1.23599,-0.90984 -1.12232,-1.01213 0.5133,-0.46189 9.30575,-3.54608 9.5144,-3.33743 0.0675,0.0675 0.23328,1.77118 0.3684,3.78597 0.6451,9.61909 1.70011,17.32451 2.61852,19.12474 0.97618,1.91348 2.36403,1.5926 3.63877,-0.84132 0.89907,-1.71663 1.21139,-4.55641 1.04051,-9.4608 -0.25267,-7.2517 -1.78793,-11.08527 -5.04345,-12.59358 -0.82252,-0.38108 -1.17575,-0.66445 -0.93686,-0.75159 1.10275,-0.40223 8.31981,-2.52983 8.5815,-2.52983 0.20944,0 0.45141,1.97675 0.76917,6.28386 0.79637,10.79407 1.47509,14.81438 2.69441,15.95987 0.58482,0.54941 0.66036,0.55895 1.26889,0.16023 0.35588,-0.23318 0.98538,-1.11298 1.3989,-1.9551 0.72938,-1.48538 0.7546,-1.67644 0.84378,-6.39169 0.13796,-7.29531 -0.67559,-11.31169 -2.79214,-13.7844 -0.514,-0.6005 -0.89063,-1.13452 -0.83696,-1.1867 0.23898,-0.23234 6.93704,-1.75299 7.22862,-1.6411 0.22479,0.0863 0.38181,1.30132 0.50653,3.91971 0.0994,2.08708 0.35784,5.48268 0.57428,7.54577 0.62574,5.96463 1.17344,8.38786 1.99524,8.82767 0.44678,0.23911 0.6564,0.15124 1.31108,-0.5496 1.25614,-1.3447 1.57872,-2.94972 1.57872,-7.85499 0,-6.32149 -0.95536,-10.16139 -2.94457,-11.83521 -0.549,-0.46194 -0.69046,-0.71506 -0.44959,-0.80446 0.86509,-0.32107 6.58984,-1.37088 6.67288,-1.22368 0.051,0.0903 0.17209,1.47389 0.2692,3.07461 0.52455,8.64699 1.37097,14.4292 2.23932,15.29755 1.40363,1.40363 2.81693,-1.12421 3.08647,-5.52051 0.33321,-5.43469 -0.5617,-10.16711 -2.29497,-12.1362 -0.56237,-0.63889 -1.02249,-1.21659 -1.02249,-1.28377 0,-0.19594 5.81945,-1.07685 5.98963,-0.90667 0.0849,0.0849 0.31688,2.51248 0.51558,5.39467 0.41208,5.97771 0.71422,8.22982 1.36875,10.20262 0.39185,1.18108 0.55891,1.38773 1.12187,1.38773 0.53842,0 0.79913,-0.27514 1.40155,-1.47912 0.70032,-1.39962 0.74108,-1.67691 0.75838,-5.15937 0.027,-5.43615 -0.63973,-8.33409 -2.29344,-9.96812 -0.40722,-0.40239 -0.69261,-0.77493 -0.63418,-0.82787 0.16084,-0.14574 5.10715,-0.95406 5.8381,-0.95406 0.63732,0 0.64024,0.0133 0.97013,4.43177 0.39007,5.22441 1.14029,9.86598 1.74344,10.78651 0.76868,1.17315 1.65778,0.77825 2.69133,-1.19536 0.40513,-0.77361 0.48518,-1.55757 0.48628,-4.7625 0.002,-4.8135 -0.57952,-7.08044 -2.24127,-8.74219 -0.57607,-0.57607 -0.94916,-1.0474 -0.82909,-1.0474 0.12007,0 1.5644,-0.24238 3.20963,-0.53863 1.64523,-0.29625 3.05832,-0.47163 3.14022,-0.38974 0.0819,0.0819 0.30573,2.02092 0.49742,4.30895 0.72352,8.63605 1.55868,11.28462 3.2696,10.36896 1.32169,-0.70734 2.01749,-4.44523 1.57011,-8.43464 -0.34233,-3.05261 -0.92451,-4.65286 -2.13201,-5.86037 l -1.01096,-1.01096 1.50582,-0.30565 c 0.8282,-0.16811 2.19758,-0.46386 3.04306,-0.65723 1.16221,-0.26581 1.55878,-0.27572 1.62552,-0.0406 0.0486,0.17104 0.28232,2.39457 0.51949,4.94118 0.4484,4.81479 0.99901,7.80893 1.58288,8.60741 0.54466,0.74487 1.5408,0.3129 2.28822,-0.99227 0.60061,-1.04881 0.64873,-1.3978 0.64873,-4.70472 0,-4.25316 -0.4491,-6.08514 -1.88001,-7.66898 l -0.93282,-1.03253 1.14183,-0.28773 c 0.62801,-0.15825 1.88769,-0.48073 2.79928,-0.71662 0.9116,-0.2359 1.71967,-0.36668 1.79573,-0.29062 0.076,0.076 0.25936,1.61224 0.40734,3.41373 0.33444,4.07125 0.94628,8.04689 1.37656,8.94464 0.43436,0.90626 1.42065,0.90092 2.10178,-0.0114 0.33355,-0.44675 0.60396,-1.43183 0.76259,-2.77812 0.45148,-3.83158 -0.29751,-7.70623 -1.79699,-9.29614 -0.48806,-0.51749 -0.85606,-0.96113 -0.81779,-0.98587 0.0383,-0.0247 0.98426,-0.30474 2.1022,-0.62224 1.11794,-0.31749 2.20332,-0.64276 2.41195,-0.72282 0.30265,-0.11613 0.41532,0.29868 0.55734,2.05196 0.28428,3.50928 0.67975,6.32587 1.09396,7.79124 0.5819,2.05859 1.58039,2.16805 2.54416,0.27891 0.48973,-0.95995 0.53582,-1.42552 0.43551,-4.39914 -0.0949,-2.81235 -0.20631,-3.50933 -0.72208,-4.51621 -0.33544,-0.65484 -0.77172,-1.37538 -0.9695,-1.60121 -0.31733,-0.36231 -0.10189,-0.49451 1.83252,-1.12448 1.20566,-0.39264 2.25895,-0.71389 2.34064,-0.71389 0.0817,0 0.23142,0.98227 0.33273,2.18281 0.20487,2.42745 0.8541,5.88899 1.23963,6.60934 0.36254,0.67743 1.16793,0.57503 1.80028,-0.22887 0.4625,-0.58798 0.54837,-1.06998 0.54837,-3.07816 0,-2.94949 -0.36793,-4.23041 -1.50089,-5.22516 -0.92834,-0.81509 -1.06302,-1.05371 -0.59476,-1.05371 0.15709,0 1.05839,-0.30916 2.00291,-0.68703 0.94451,-0.37786 1.76047,-0.64385 1.81323,-0.59109 0.0528,0.0528 0.23541,1.40373 0.40588,3.00214 0.45791,4.29367 1.06876,5.39116 2.26439,4.06834 0.41824,-0.46272 0.50403,-0.9694 0.50403,-2.97657 0,-2.12361 -0.085,-2.56962 -0.69649,-3.65334 l -0.69648,-1.23443 1.33921,-0.55655 c 0.92673,-0.38513 1.39472,-0.46675 1.51942,-0.26498 0.0991,0.16036 0.25325,1.15577 0.34254,2.21202 0.3055,3.61418 1.24886,5.09035 2.14525,3.35692 0.61672,-1.19261 0.55319,-4.40363 -0.11299,-5.71029 -0.28884,-0.56655 -0.4972,-1.05283 -0.46302,-1.08063 0.24193,-0.19677 1.80054,-0.91159 1.98765,-0.91159 0.12759,0 0.37459,0.77394 0.54889,1.71988 0.47092,2.55579 0.7268,3.09467 1.42201,2.99482 1.26067,-0.18107 1.67108,-2.744 0.73381,-4.58241 -0.29105,-0.57086 -0.52917,-1.06053 -0.52917,-1.08814 0,-0.18637 1.93444,-1.14115 2.1021,-1.03753 0.11517,0.0712 0.28706,0.71484 0.38198,1.43037 0.21834,1.6459 0.73597,2.15651 1.32854,1.3105 0.5224,-0.74584 0.53338,-1.55316 0.0373,-2.74052 -0.37907,-0.90726 -0.37428,-0.92243 0.42147,-1.33393 0.44269,-0.22893 0.83189,-0.37768 0.86489,-0.33057 0.033,0.0471 0.2053,0.59167 0.38291,1.21013 0.1776,0.61846 0.47292,1.12448 0.65625,1.12448 0.96257,0 1.28576,-1.54574 0.54448,-2.60407 -0.23313,-0.33283 -0.38196,-0.63349 -0.33073,-0.66812 0.61802,-0.41786 1.55846,-0.96114 1.66376,-0.96114 0.0737,0 0.2322,0.37885 0.35219,0.8419 0.11999,0.46304 0.35712,0.88822 0.52697,0.94483 0.44664,0.14888 0.70944,-1.18825 0.37696,-1.91796 -0.24219,-0.53155 -0.19101,-0.68173 0.35399,-1.03883 0.80287,-0.52606 1.08668,-0.52583 1.28887,0.001 0.20926,0.54532 0.2015,3.66436 -0.0123,4.95851 -0.15371,0.93026 -0.22206,0.99761 -0.85205,0.83949 -1.14051,-0.28623 -1.22398,-0.27785 -1.22398,0.12296 0,0.21248 0.37319,0.63782 0.8293,0.9452 0.80175,0.5403 0.81742,0.58711 0.47167,1.40939 l -0.35762,0.85053 -1.05645,-0.53896 c -1.2195,-0.62214 -2.13586,-0.69841 -2.13586,-0.17776 0,0.6921 1.08238,1.736 1.97329,1.90314 0.86882,0.16299 0.8847,0.18906 0.61071,1.00202 -0.15472,0.45908 -0.30429,0.86542 -0.33238,0.90299 -0.0281,0.0376 -0.95511,-0.34938 -2.06005,-0.85989 -2.51895,-1.16383 -3.10198,-1.19637 -3.10198,-0.17309 0,0.86307 0.95943,2.0302 1.99146,2.42258 0.37885,0.14404 1.15974,0.26189 1.7353,0.26189 h 1.04649 l -0.5233,1.02575 -0.5233,1.02576 -2.35392,-0.88417 c -2.96822,-1.11491 -4.32842,-1.35352 -4.75891,-0.83483 -0.25377,0.30579 -0.19711,0.56447 0.28085,1.28206 0.87857,1.31905 2.34413,1.9573 4.49439,1.9573 0.98226,0 1.78594,0.0336 1.78594,0.0746 0,0.35934 -0.82123,1.90973 -1.01157,1.90973 -0.13465,0 -0.7658,-0.18394 -1.40256,-0.40876 -3.91846,-1.38348 -8.36893,-2.0512 -8.61769,-1.29296 -0.22942,0.69929 1.15931,2.11077 2.66788,2.71158 1.81687,0.72359 4.78159,1.03599 5.9538,0.62735 0.47039,-0.16398 0.82264,-0.1824 0.82264,-0.043 0,0.42759 -1.15526,2.63915 -1.37862,2.63915 -0.11816,0 -1.55295,-0.4029 -3.18843,-0.89533 -3.95674,-1.19134 -6.97217,-1.81384 -8.26525,-1.70626 -0.86326,0.0718 -1.0739,0.19769 -1.14282,0.6829 -0.11525,0.81143 0.85095,2.09228 2.025,2.68447 2.44751,1.23452 7.00792,1.72228 9.10511,0.97383 l 0.99145,-0.35383 -0.54179,0.96399 c -0.29799,0.5302 -0.92274,1.4077 -1.38833,1.95001 l -0.84653,0.98601 -3.43959,-1.05636 c -5.60469,-1.7213 -9.73697,-2.68149 -11.15216,-2.59136 -1.10721,0.0705 -1.29505,0.16493 -1.36927,0.68828 -0.0597,0.42064 0.22537,0.91797 0.92985,1.62245 1.76623,1.76622 6.92053,3.07628 11.34246,2.88288 l 2.48863,-0.10885 -0.59059,0.66344 c -0.32482,0.36489 -1.0073,1.11529 -1.51662,1.66756 l -0.92605,1.00412 -3.70197,-1.05972 c -5.61675,-1.60783 -11.50849,-2.91281 -13.15082,-2.91281 -2.39802,0 -2.60475,0.85866 -0.6252,2.59674 0.92383,0.81113 2.57172,1.41355 6.36549,2.32706 1.99631,0.48069 7.18315,0.64882 8.99584,0.29159 l 1.05833,-0.20857 -2.11667,2.00524 c -3.29139,3.11811 -2.77719,2.99042 -5.97593,1.48395 -4.11577,-1.93835 -8.24149,-3.67737 -11.35428,-4.78591 -3.70302,-1.31874 -4.32413,-1.4221 -5.04373,-0.8394 -0.75787,0.61368 -0.53539,1.32497 0.9066,2.89852 2.16902,2.36689 9.28628,5.02744 14.1073,5.27353 l 2.69412,0.13752 -1.90037,1.55329 c -1.04521,0.85431 -1.99722,1.55344 -2.11558,1.55361 -0.11836,1.8e-4 -1.36852,-0.4698 -2.77812,-1.0444 -6.17046,-2.51526 -13.8423,-5.24245 -17.20699,-6.11673 -2.58769,-0.67239 -3.09934,-0.73391 -3.70417,-0.44541 -1.13195,0.53993 -1.04655,1.47012 0.27253,2.96868 1.35345,1.5376 4.33084,3.01899 8.974,4.465 4.36505,1.35939 5.28559,1.53431 9.06771,1.72304 l 3.40559,0.16994 -2.57807,1.90485 -2.57806,1.90485 -1.2244,-0.49037 c -14.56577,-5.8336 -24.39565,-9.20999 -27.10673,-9.3107 -2.33625,-0.0868 -2.87821,0.53753 -2.01485,2.32099 1.19642,2.47148 4.10296,4.20275 10.83156,6.45176 5.52774,1.84764 9.06482,2.49511 13.67621,2.50347 l 3.75433,0.007 -3.21807,2.08624 c -2.86201,1.85542 -3.29203,2.05631 -3.88662,1.81567 -0.36771,-0.1488 -3.407,-1.39501 -6.75398,-2.76934 -10.08892,-4.14269 -14.90181,-5.93938 -19.23638,-7.18109 -3.6722,-1.05196 -5.0728,-1.18119 -5.97246,-0.55105 -1.21406,0.85037 -0.50569,2.56528 2.09266,5.06616 2.29427,2.2082 10.76899,5.50272 17.95681,6.98065 0.80036,0.16457 3.25918,0.37548 5.46404,0.4687 l 4.00883,0.16949 -3.13804,1.78594 c -1.72592,0.98226 -3.27035,1.78594 -3.43206,1.78594 -0.16171,0 -3.35154,-1.14424 -7.0885,-2.54276 -8.46366,-3.16742 -19.01679,-6.70922 -23.19865,-7.78584 -5.04219,-1.29811 -7.54063,-1.07926 -7.54063,0.66051 0,0.89242 1.3677,2.8248 2.96547,4.18982 2.46379,2.10488 10.22305,5.00922 17.2189,6.44516 3.01447,0.61873 4.15163,0.71953 8.25834,0.73202 3.18889,0.01 5.14288,-0.0995 5.91369,-0.33044 0.63315,-0.18971 1.21151,-0.2846 1.28523,-0.21088 0.14931,0.14931 -8.47674,4.50078 -10.79643,5.44633 l -1.48084,0.60362 -4.33999,-2.04621 c -9.87313,-4.65497 -20.17836,-8.97559 -24.31603,-10.19484 -1.09141,-0.32161 -2.65879,-0.64593 -3.48306,-0.72073 -1.35571,-0.12301 -1.56458,-0.0701 -2.18926,0.55458 -0.54106,0.54106 -0.65375,0.84931 -0.52054,1.42376 0.52432,2.26088 3.1572,5.28459 5.76918,6.62556 8.63602,4.43369 15.66287,6.34809 22.36076,6.09199 l 3.01938,-0.11544 -1.29958,0.59993 c -0.71478,0.32996 -3.03149,1.42015 -5.14827,2.42263 l -3.84868,1.82271 -7.5284,-3.72822 c -11.59129,-5.74025 -19.22901,-8.84819 -22.02885,-8.96398 -1.11668,-0.0462 -1.37238,0.0453 -1.92639,0.68912 -0.84333,0.98005 -0.81127,1.35533 0.30674,3.59009 1.23057,2.45976 2.8945,4.1107 5.67014,5.62586 6.86072,3.74511 14.05382,5.63265 19.06877,5.00383 1.17153,-0.1469 2.24164,-0.33605 2.37802,-0.42033 0.13638,-0.0843 0.24796,-0.0509 0.24796,0.0742 0,0.12511 -0.56555,0.50084 -1.25678,0.83496 -0.69122,0.33411 -2.53243,1.36987 -4.09157,2.30168 -1.55914,0.93181 -3.00981,1.69419 -3.2237,1.69419 -0.2139,0 -1.08137,-0.2899 -1.9277,-0.64423 -7.30323,-3.05758 -20.36982,-7.62545 -25.07091,-8.7644 -4.36775,-1.0582 -6.23351,-0.76419 -6.23351,0.98227 0,1.41222 2.66449,4.56511 4.77066,5.64513 3.81293,1.95521 10.57757,4.09978 15.12757,4.79584 1.91239,0.29256 3.85109,0.38114 6.50885,0.29739 2.08186,-0.0656 3.68921,-0.0356 3.57187,0.0667 -0.11733,0.10227 -1.22536,0.94233 -2.46229,1.86679 -1.23692,0.92447 -3.21612,2.49066 -4.39821,3.48043 l -2.14925,1.79958 -3.14241,-1.4784 c -1.72833,-0.81312 -3.79726,-1.75469 -4.59763,-2.09238 -0.80036,-0.33769 -2.46724,-1.05286 -3.70416,-1.58926 -6.96978,-3.02249 -13.59082,-5.42723 -16.39069,-5.95303 -3.94562,-0.74097 -4.59323,1.49484 -1.37498,4.74704 3.65535,3.69392 10.27378,7.29771 16.08594,8.75893 2.49633,0.6276 6.97932,0.84299 8.93978,0.42951 0.93569,-0.19734 1.00659,-0.17675 0.69295,0.20116 -0.7453,0.89803 -4.04636,2.84945 -5.86864,3.46925 -4.39121,1.49355 -8.55492,0.48048 -17.4302,-4.24092 -1.81901,-0.96766 -5.23907,-2.72076 -7.60013,-3.89577 l -4.29284,-2.13638 -1.52799,1.29338 c -6.77737,5.73672 -15.51471,13.52036 -21.32631,18.99848 -1.86679,1.75967 -3.47788,3.23041 -3.58021,3.26832 -0.10233,0.0379 -0.71184,-0.46682 -1.35447,-1.1216 z"
         id="path837" />
      <path
         style="fill:#a36818;fill-opacity:1;stroke:#a36818;stroke-width:0.99218756px;stroke-linecap:butt;stroke-linejoin:miter;stroke-opacity:1"
         d="m -91.994149,239.91539 c 0,-0.39485 -19.347991,1.31619 -18.426651,20.7958 0,0 -18.75571,13.16189 -30.46979,46.72473 0,0 19.54541,-38.16875 34.22092,-38.16875 3.98167,0 5.82784,2.4708 7.831333,4.47429 0,0 2.860991,8.6142 21.78294,15.26781 19.248767,6.76853 44.816248,6.71256 44.816248,6.71256 0,0 -1.645228,9.08171 -7.239023,17.11047 0,0 -17.092263,6.26923 -15.822263,7.18645 1.27,0.91722 7.337778,-1.12889 7.337778,-1.12889 0,0 2.257777,-0.28222 2.116666,5.43278 0,0 12.347223,-8.67834 14.887223,-6.35 0,0 -3.210278,-6.31472 3.880555,-13.40556 7.090834,-7.09083 8.537222,-6.84389 11.359445,-6.84389 2.751666,0 6.7027777,3.31611 6.7027777,20.74334 0,0 -20.3941397,2.69547 -23.9183337,8.88999 -1.280178,2.25019 12.135556,-1.97555 12.135556,-1.97555 l 2.751667,4.65667 c 0,0 6.35,-7.47889 17.07444417,-5.43278 0,0 -3.88055567,-4.72722 -1.76388887,-9.45445 8.3363517,-13.41939 18.2132477,-25.87593 28.0105557,-38.38222 0,0 25.70636,-15.85829 2.729386,-38.83526 C 5.0264222,214.95596 -7.8282186,213.02826 -31.1333,219.27284 c -12.435637,3.99051 -21.59134,10.14851 -44.737516,24.19626 0,0 -16.123333,-3.15885 -16.123333,-3.55371 z"
         id="path839" />
      <circle
         style="opacity:1;fill:#20fc00;fill-opacity:1;fill-rule:nonzero;stroke:#20fc00;stroke-width:1.98437512;stroke-linecap:butt;stroke-linejoin:miter;stroke-miterlimit:4;stroke-dasharray:none;stroke-dashoffset:0;stroke-opacity:1"
         id="path843"
         cx="-94.303825"
         cy="250.95732"
         r="3.8044662" />
      <path
         style="color:#000000;font-style:normal;font-variant:normal;font-weight:normal;font-stretch:normal;font-size:medium;line-height:normal;font-family:sans-serif;font-variant-ligatures:normal;font-variant-position:normal;font-variant-caps:normal;font-variant-numeric:normal;font-variant-alternates:normal;font-feature-settings:normal;text-indent:0;text-align:start;text-decoration:none;text-decoration-line:none;text-decoration-style:solid;text-decoration-color:#000000;letter-spacing:normal;word-spacing:normal;text-transform:none;writing-mode:lr-tb;direction:ltr;text-orientation:mixed;dominant-baseline:auto;baseline-shift:baseline;text-anchor:start;white-space:normal;shape-padding:0;clip-rule:nonzero;display:inline;overflow:visible;visibility:visible;opacity:1;isolation:auto;mix-blend-mode:normal;color-interpolation:sRGB;color-interpolation-filters:linearRGB;solid-color:#000000;solid-opacity:1;vector-effect:none;fill:#20fc00;fill-opacity:1;fill-rule:nonzero;stroke:none;stroke-width:37.5;stroke-linecap:butt;stroke-linejoin:miter;stroke-miterlimit:4;stroke-dasharray:none;stroke-dashoffset:0;stroke-opacity:1;color-rendering:auto;image-rendering:auto;shape-rendering:auto;text-rendering:auto;enable-background:accumulate"
         d="M 931.07812,394.14453 0,645.28125 v 10.35937 L 933.68359,403.79883 Z"
         transform="matrix(0.26458334,0,0,0.26458334,-340.55655,144.86458)"
         id="path845" />
      <path
         id="path847"
         d="m -336.86914,300.41211 -3.6875,8.80664 2.44141,1.02344 3.6875,-8.80664 z"
         style="color:#000000;font-style:normal;font-variant:normal;font-weight:normal;font-stretch:normal;font-size:medium;line-height:normal;font-family:sans-serif;font-variant-ligatures:normal;font-variant-position:normal;font-variant-caps:normal;font-variant-numeric:normal;font-variant-alternates:normal;font-feature-settings:normal;text-indent:0;text-align:start;text-decoration:none;text-decoration-line:none;text-decoration-style:solid;text-decoration-color:#000000;letter-spacing:normal;word-spacing:normal;text-transform:none;writing-mode:lr-tb;direction:ltr;text-orientation:mixed;dominant-baseline:auto;baseline-shift:baseline;text-anchor:start;white-space:normal;shape-padding:0;clip-rule:nonzero;display:inline;overflow:visible;visibility:visible;opacity:1;isolation:auto;mix-blend-mode:normal;color-interpolation:sRGB;color-interpolation-filters:linearRGB;solid-color:#000000;solid-opacity:1;vector-effect:none;fill:#1bfe00;fill-opacity:1;fill-rule:nonzero;stroke:none;stroke-width:9.921875;stroke-linecap:butt;stroke-linejoin:miter;stroke-miterlimit:4;stroke-dasharray:none;stroke-dashoffset:0;stroke-opacity:1;color-rendering:auto;image-rendering:auto;shape-rendering:auto;text-rendering:auto;enable-background:accumulate" />
      <path
         id="path849"
         d="m -329.16797,306.24805 -8.20312,4.66601 1.30664,2.30078 8.20507,-4.66796 z"
         style="color:#000000;font-style:normal;font-variant:normal;font-weight:normal;font-stretch:normal;font-size:medium;line-height:normal;font-family:sans-serif;font-variant-ligatures:normal;font-variant-position:normal;font-variant-caps:normal;font-variant-numeric:normal;font-variant-alternates:normal;font-feature-settings:normal;text-indent:0;text-align:start;text-decoration:none;text-decoration-line:none;text-decoration-style:solid;text-decoration-color:#000000;letter-spacing:normal;word-spacing:normal;text-transform:none;writing-mode:lr-tb;direction:ltr;text-orientation:mixed;dominant-baseline:auto;baseline-shift:baseline;text-anchor:start;white-space:normal;shape-padding:0;clip-rule:nonzero;display:inline;overflow:visible;visibility:visible;opacity:1;isolation:auto;mix-blend-mode:normal;color-interpolation:sRGB;color-interpolation-filters:linearRGB;solid-color:#000000;solid-opacity:1;vector-effect:none;fill:#1bfe00;fill-opacity:1;fill-rule:nonzero;stroke:none;stroke-width:9.921875;stroke-linecap:butt;stroke-linejoin:miter;stroke-miterlimit:4;stroke-dasharray:none;stroke-dashoffset:0;stroke-opacity:1;color-rendering:auto;image-rendering:auto;shape-rendering:auto;text-rendering:auto;enable-background:accumulate" />
      <path
         id="path851"
         d="m -336.38672,317.35352 -0.8125,2.51757 9.10742,2.93555 0.8125,-2.51758 z"
         style="color:#000000;font-style:normal;font-variant:normal;font-weight:normal;font-stretch:normal;font-size:medium;line-height:normal;font-family:sans-serif;font-variant-ligatures:normal;font-variant-position:normal;font-variant-caps:normal;font-variant-numeric:normal;font-variant-alternates:normal;font-feature-settings:normal;text-indent:0;text-align:start;text-decoration:none;text-decoration-line:none;text-decoration-style:solid;text-decoration-color:#000000;letter-spacing:normal;word-spacing:normal;text-transform:none;writing-mode:lr-tb;direction:ltr;text-orientation:mixed;dominant-baseline:auto;baseline-shift:baseline;text-anchor:start;white-space:normal;shape-padding:0;clip-rule:nonzero;display:inline;overflow:visible;visibility:visible;opacity:1;isolation:auto;mix-blend-mode:normal;color-interpolation:sRGB;color-interpolation-filters:linearRGB;solid-color:#000000;solid-opacity:1;vector-effect:none;fill:#1bfe00;fill-opacity:1;fill-rule:nonzero;stroke:none;stroke-width:9.921875;stroke-linecap:butt;stroke-linejoin:miter;stroke-miterlimit:4;stroke-dasharray:none;stroke-dashoffset:0;stroke-opacity:1;color-rendering:auto;image-rendering:auto;shape-rendering:auto;text-rendering:auto;enable-background:accumulate" />
      <path
         id="path853"
         d="m -338.08984,321.39453 -1.77149,1.96485 6.92383,6.24609 1.77344,-1.96289 z"
         style="color:#000000;font-style:normal;font-variant:normal;font-weight:normal;font-stretch:normal;font-size:medium;line-height:normal;font-family:sans-serif;font-variant-ligatures:normal;font-variant-position:normal;font-variant-caps:normal;font-variant-numeric:normal;font-variant-alternates:normal;font-feature-settings:normal;text-indent:0;text-align:start;text-decoration:none;text-decoration-line:none;text-decoration-style:solid;text-decoration-color:#000000;letter-spacing:normal;word-spacing:normal;text-transform:none;writing-mode:lr-tb;direction:ltr;text-orientation:mixed;dominant-baseline:auto;baseline-shift:baseline;text-anchor:start;white-space:normal;shape-padding:0;clip-rule:nonzero;display:inline;overflow:visible;visibility:visible;opacity:1;isolation:auto;mix-blend-mode:normal;color-interpolation:sRGB;color-interpolation-filters:linearRGB;solid-color:#000000;solid-opacity:1;vector-effect:none;fill:#1bfe00;fill-opacity:1;fill-rule:nonzero;stroke:none;stroke-width:9.921875;stroke-linecap:butt;stroke-linejoin:miter;stroke-miterlimit:4;stroke-dasharray:none;stroke-dashoffset:0;stroke-opacity:1;color-rendering:auto;image-rendering:auto;shape-rendering:auto;text-rendering:auto;enable-background:accumulate" />
    </g>
  </g>
</svg>
